<?xml version="1.0" encoding="UTF-8"?>
<svg width="40px" height="40px" viewBox="0 0 40 40" version="1.1" xmlns="http://www.w3.org/2000/svg" xmlns:xlink="http://www.w3.org/1999/xlink">
    <title>详情</title>
    <g id="尽调任务" stroke="none" stroke-width="1" fill="none" fill-rule="evenodd">
        <g id="尽调任务-任务详情" transform="translate(-28.000000, -328.000000)">
            <g id="详情" transform="translate(28.000000, 328.000000)">
                <rect id="矩形" fill="#ECF3FF" x="0" y="0" width="40" height="40" rx="8"></rect>
                <rect id="矩形" fill="#000000" fill-rule="nonzero" opacity="0" x="8" y="8" width="24" height="24"></rect>
                <circle id="椭圆形" fill="#ACC3FF" cx="23.5" cy="23.5" r="4.5"></circle>
                <path d="M23.6890625,29.0070313 C22.2429688,29.0070313 20.8835938,28.4445313 19.8617188,27.4226563 C18.8398438,26.3984375 18.2773438,25.0390625 18.2773438,23.5929688 C18.2773438,22.146875 18.8398438,20.7875 19.8617188,19.765625 C20.8835938,18.74375 22.2429688,18.18125 23.6890625,18.18125 C25.1351563,18.18125 26.4945313,18.74375 27.5164063,19.765625 C28.5382813,20.7875 29.1007813,22.146875 29.1007813,23.5929688 C29.1007813,25.0390625 28.5382813,26.3984375 27.5164063,27.4203125 C26.4945313,28.4445313 25.1351563,29.0070313 23.6890625,29.0070313 L23.6890625,29.0070313 Z M23.6890625,19.821875 C21.6101563,19.821875 19.9179688,21.5140625 19.9179688,23.5929688 C19.9179688,25.671875 21.6101563,27.3640625 23.6890625,27.3640625 C25.7679688,27.3640625 27.4601587,25.671875 27.4601587,23.5929688 C27.4625,21.5140625 25.7703125,19.821875 23.6890625,19.821875 Z M29.5601563,30.2679688 C29.3632813,30.2679688 29.1664063,30.1976563 29.009375,30.0546875 L26.4546875,27.7320313 C26.1195313,27.4273438 26.09375,26.909375 26.3984375,26.5742188 C26.703125,26.2390625 27.2210938,26.2132813 27.55625,26.5179688 L30.1109375,28.840625 C30.4460938,29.1453125 30.471875,29.6632813 30.1671875,29.9984375 C30.0054688,30.1789063 29.7828125,30.2679688 29.5601563,30.2679688 Z M26.1664063,14.54375 L12.8539063,14.54375 C12.4015625,14.54375 12.0335938,14.1757812 12.0335938,13.7234375 C12.0335938,13.2710937 12.4015625,12.903125 12.8539063,12.903125 L26.1664063,12.903125 C26.61875,12.903125 26.9867188,13.2710937 26.9867188,13.7234375 C26.9867188,14.1757812 26.6210938,14.54375 26.1664063,14.54375 Z M18.7742187,18.9453125 L12.9429687,18.9453125 C12.490625,18.9453125 12.1226562,18.5773437 12.1226562,18.125 C12.1226562,17.6726562 12.490625,17.3046875 12.9429687,17.3046875 L18.771875,17.3046875 C19.2242187,17.3046875 19.5921875,17.6726562 19.5921875,18.125 C19.5921875,18.5773437 19.2265625,18.9453125 18.7742187,18.9453125 Z" id="形状" fill="#1B55FF" fill-rule="nonzero"></path>
                <path d="M17.494646,29.8181818 L17.494646,29.8181818 L12.3636364,29.8181818 C11.1586515,29.8181818 10.1818182,28.8413485 10.1818182,27.6363636 L10.1818182,12.3636364 C10.1818182,11.1586515 11.1586515,10.1818182 12.3636364,10.1818182 L26.5454545,10.1818182 C27.7504395,10.1818182 28.7272727,11.1586515 28.7272727,12.3636364 L28.7272727,16.3257482 L28.7272727,16.3257482" id="路径" stroke="#1B55FF" stroke-width="1.3" stroke-linecap="round"></path>
            </g>
        </g>
    </g>
</svg>