<?xml version="1.0" standalone="no"?><!DOCTYPE svg PUBLIC "-//W3C//DTD SVG 1.1//EN" "http://www.w3.org/Graphics/SVG/1.1/DTD/svg11.dtd"><svg t="1629520356210" class="icon" viewBox="0 0 1024 1024" version="1.1" xmlns="http://www.w3.org/2000/svg" p-id="6557" width="48" height="48" xmlns:xlink="http://www.w3.org/1999/xlink"><defs><style type="text/css"></style></defs><path d="M677.322 232.163H174.239c-61.74 0-111.796 50.057-111.796 111.796v503.083c0 61.739 50.057 111.796 111.796 111.796h503.083c61.739 0 111.796-50.057 111.796-111.796V343.959c0-61.74-50.057-111.796-111.796-111.796z m55.898 614.879c0 30.842-25.056 55.898-55.898 55.898H174.239c-30.815 0-55.898-25.056-55.898-55.898V343.959c0-30.843 25.083-55.898 55.898-55.898h503.083c30.842 0 55.898 25.055 55.898 55.898v503.083z" p-id="6558" fill="#2a82e4"></path><path d="M230.137 455.755h391.287v-55.898H230.137v55.898zM230.137 567.55h391.287v-55.898H230.137v55.898zM230.137 679.347h391.287V623.45H230.137v55.898zM230.137 791.144h223.592v-55.898H230.137v55.898z" p-id="6559" fill="#2a82e4"></path><path d="M845.016 64.468H341.933c-61.739 0-111.796 50.057-111.796 111.796h55.898c0-30.842 25.083-55.898 55.898-55.898h503.083c30.843 0 55.898 25.056 55.898 55.898v503.083c0 30.843-25.055 55.899-55.898 55.899v55.898c61.74 0 111.796-50.057 111.796-111.797V176.264c0-61.739-50.057-111.796-111.796-111.796z" p-id="6560" fill="#2a82e4"></path></svg>
