<?xml version="1.0" standalone="no"?><!DOCTYPE svg PUBLIC "-//W3C//DTD SVG 1.1//EN" "http://www.w3.org/Graphics/SVG/1.1/DTD/svg11.dtd"><svg t="1626953955886" class="icon" viewBox="0 0 1024 1024" version="1.1" xmlns="http://www.w3.org/2000/svg" p-id="2049" xmlns:xlink="http://www.w3.org/1999/xlink" width="32" height="32"><defs><style type="text/css">@font-face { font-family: feedback-iconfont; src: url("//at.alicdn.com/t/font_1031158_1uhr8ri0pk5.eot?#iefix") format("embedded-opentype"), url("//at.alicdn.com/t/font_1031158_1uhr8ri0pk5.woff2") format("woff2"), url("//at.alicdn.com/t/font_1031158_1uhr8ri0pk5.woff") format("woff"), url("//at.alicdn.com/t/font_1031158_1uhr8ri0pk5.ttf") format("truetype"), url("//at.alicdn.com/t/font_1031158_1uhr8ri0pk5.svg#iconfont") format("svg"); }
</style></defs><path d="M512 53.248c9.556992 0 17.408 3.072 23.552 9.216s9.216 13.995008 9.216 23.552v196.608c0 9.556992-3.072 17.408-9.216 23.552s-13.995008 9.216-23.552 9.216-17.408-3.072-23.552-9.216-9.216-13.995008-9.216-23.552V86.016c0-9.556992 3.072-17.408 9.216-23.552s13.995008-9.216 23.552-9.216z m0 655.36c9.556992 0 17.408 3.072 23.552 9.216s9.216 13.995008 9.216 23.552v196.608c0 9.556992-3.072 17.408-9.216 23.552s-13.995008 9.216-23.552 9.216-17.408-3.072-23.552-9.216-9.216-13.995008-9.216-23.552V741.376c0-9.556992 3.072-17.408 9.216-23.552s13.995008-9.216 23.552-9.216z m458.752-196.608c0 9.556992-3.072 17.408-9.216 23.552s-13.995008 9.216-23.552 9.216H741.376c-9.556992 0-17.408-3.072-23.552-9.216s-9.216-13.995008-9.216-23.552 3.072-17.408 9.216-23.552 13.995008-9.216 23.552-9.216h196.608c9.556992 0 17.408 3.072 23.552 9.216s9.216 13.995008 9.216 23.552z m-655.36 0c0 9.556992-3.072 17.408-9.216 23.552s-13.995008 9.216-23.552 9.216H86.016c-9.556992 0-17.408-3.072-23.552-9.216s-9.216-13.995008-9.216-23.552 3.072-17.408 9.216-23.552 13.995008-9.216 23.552-9.216h196.608c9.556992 0 17.408 3.072 23.552 9.216s9.216 13.995008 9.216 23.552zM187.392 187.392c6.827008-6.144 14.676992-9.216 23.552-9.216s16.384 3.072 22.528 9.216l139.264 139.264c6.144 6.827008 9.216 14.507008 9.216 23.04s-3.243008 16.043008-9.728 22.528-13.995008 9.728-22.528 9.728-16.212992-3.072-23.04-9.216L187.392 233.472c-6.144-6.144-9.216-13.652992-9.216-22.528s3.072-16.724992 9.216-23.552z m463.872 463.872c6.827008-6.827008 14.507008-10.24 23.04-10.24s16.212992 3.412992 23.04 10.24l139.264 139.264c6.144 6.144 9.216 13.652992 9.216 22.528s-3.243008 16.555008-9.728 23.04c-6.484992 6.484992-14.164992 9.728-23.04 9.728s-16.384-3.072-22.528-9.216L651.264 697.344c-6.827008-6.827008-10.24-14.507008-10.24-23.04s3.412992-16.212992 10.24-23.04z m185.344-463.872c6.144 6.827008 9.216 14.676992 9.216 23.552s-3.072 16.384-9.216 22.528L697.344 372.736c-6.827008 6.144-14.507008 9.216-23.04 9.216s-16.043008-3.243008-22.528-9.728-9.728-13.995008-9.728-22.528 3.072-16.212992 9.216-23.04l139.264-139.264c6.144-6.144 13.652992-9.216 22.528-9.216s16.724992 3.072 23.552 9.216zM372.736 651.264c6.827008 6.827008 10.24 14.507008 10.24 23.04s-3.412992 16.212992-10.24 23.04L233.472 836.608c-6.144 6.144-13.652992 9.216-22.528 9.216s-16.555008-3.243008-23.04-9.728c-6.484992-6.484992-9.728-14.164992-9.728-23.04s3.072-16.384 9.216-22.528l139.264-139.264c6.827008-6.827008 14.507008-10.24 23.04-10.24s16.212992 3.412992 23.04 10.24z" p-id="2050"></path></svg>