<?xml version="1.0" standalone="no"?><!DOCTYPE svg PUBLIC "-//W3C//DTD SVG 1.1//EN" "http://www.w3.org/Graphics/SVG/1.1/DTD/svg11.dtd"><svg t="1626254746159" class="icon" viewBox="0 0 1024 1024" version="1.1" xmlns="http://www.w3.org/2000/svg" p-id="12942" xmlns:xlink="http://www.w3.org/1999/xlink" width="32" height="32"><defs><style type="text/css"></style></defs><path d="M825.6 795.733333l-192-192h-2.133333c36.266667-42.666667 59.733333-100.266667 59.733333-162.133333C691.2 302.933333 578.133333 192 441.6 192 302.933333 192 192 302.933333 192 441.6s110.933333 249.6 249.6 249.6c61.866667 0 117.333333-21.333333 162.133333-59.733333v2.133333l192 192c4.266667 4.266667 8.533333 6.4 14.933334 6.4s10.666667-2.133333 14.933333-6.4c8.533333-8.533333 8.533333-21.333333 0-29.866667z m-384-147.2c-115.2 0-206.933333-93.866667-206.933333-206.933333S326.4 234.666667 441.6 234.666667c113.066667 0 206.933333 91.733333 206.933333 206.933333 0 115.2-91.733333 206.933333-206.933333 206.933333z" fill="#ffffff" p-id="12943"></path></svg>