<?xml version="1.0" standalone="no"?><!DOCTYPE svg PUBLIC "-//W3C//DTD SVG 1.1//EN" "http://www.w3.org/Graphics/SVG/1.1/DTD/svg11.dtd"><svg t="1627912848134" class="icon" viewBox="0 0 1024 1024" version="1.1" xmlns="http://www.w3.org/2000/svg" p-id="2711" xmlns:xlink="http://www.w3.org/1999/xlink" width="48" height="48"><defs><style type="text/css"></style></defs><path d="M634.5984 487.1936a220.01664 220.01664 0 1 0-240.06656 0A434.26816 434.26816 0 0 0 81.92 903.81824a26.4192 26.4192 0 1 0 52.8384 0 379.81696 379.81696 0 1 1 759.63904 0 26.4192 26.4192 0 1 0 52.8384 0 434.26816 434.26816 0 0 0-312.63744-416.62464z m-287.232-184.71424A167.17824 167.17824 0 1 1 514.56 470.07744a167.5776 167.5776 0 0 1-167.17312-167.59808z" fill="#2966C1" p-id="2712"></path><path d="M541.96736 670.44864H486.99904a39.80288 39.80288 0 0 1-39.46496-38.21056l-4.75648-44.83584a39.8336 39.8336 0 0 1 39.5264-40.07424h64.39424a39.8336 39.8336 0 0 1 39.51104 40.05376l-0.15872 2.92864-4.608 41.9072a39.80288 39.80288 0 0 1-39.4752 38.23104zM498.5344 617.4208h31.8976l1.8688-17.04448h-35.6352z m13.312 324.6592h-0.73728a28.62592 28.62592 0 0 1-22.21056-11.46368L441.23648 867.328a29.184 29.184 0 0 1-5.79584-19.5584l9.216-131.74272a28.98432 28.98432 0 0 1 28.75392-26.99776h82.18112a29.01504 29.01504 0 0 1 28.75392 26.9824l9.216 131.65568a29.04576 29.04576 0 0 1-6.69696 20.73088l-52.92032 63.33952a28.60032 28.60032 0 0 1-22.07232 10.3424z m-23.61344-99.69152l24.54528 32.57856 27.86816-33.3568-6.95296-99.54304h-38.4512z m58.65984-8.24832z m-50.08896-114.40128v0.0768l0.02048-0.0768z" fill="#FD9A16" p-id="2713"></path></svg>