<?xml version="1.0" standalone="no"?><!DOCTYPE svg PUBLIC "-//W3C//DTD SVG 1.1//EN" "http://www.w3.org/Graphics/SVG/1.1/DTD/svg11.dtd"><svg t="1627912906769" class="icon" viewBox="0 0 1024 1024" version="1.1" xmlns="http://www.w3.org/2000/svg" p-id="6897" xmlns:xlink="http://www.w3.org/1999/xlink" width="48" height="48"><defs><style type="text/css"></style></defs><path d="M91.5 424.3h841.3v247.9H91.5z" fill="#49E8CE" p-id="6898"></path><path d="M857.6 844.1H166.4C110.5 844.1 65 798.6 65 742.7V372c0-55.9 45.5-101.4 101.4-101.4h51.9c33.4 0 57.9-16.4 74.8-50.1 6.3-15.4 24.8-39.5 57.8-39.5h506.7c55.9 0 101.4 45.5 101.4 101.4v460.2c0 56-45.5 101.5-101.4 101.5z m-691.2-521c-26.9 0-48.8 21.9-48.8 48.8v370.7c0 26.9 21.9 48.8 48.8 48.8h691.2c26.9 0 48.8-21.9 48.8-48.8V282.5c0-26.9-21.9-48.8-48.8-48.8H350.9c-5.4 0-8.2 4.9-9.1 6.9l-0.5 1.7-0.5 0.6c-25.9 52.6-68.3 80.3-122.4 80.3h-52z" p-id="6899"></path><path d="M838 303.9m-35.9 0a35.9 35.9 0 1 0 71.8 0 35.9 35.9 0 1 0-71.8 0Z" p-id="6900"></path><path d="M578 318.9H464.6c-14.5 0-26.3-11.8-26.3-26.3s11.8-26.3 26.3-26.3H578c14.5 0 26.3 11.8 26.3 26.3s-11.8 26.3-26.3 26.3zM228.7 232.5H115.4c-14.5 0-26.3-11.8-26.3-26.3s11.8-26.3 26.3-26.3h113.3c14.5 0 26.3 11.8 26.3 26.3s-11.8 26.3-26.3 26.3z" p-id="6901"></path><path d="M521.3 548.2m-180.6 0a180.6 180.6 0 1 0 361.2 0 180.6 180.6 0 1 0-361.2 0Z" fill="#FFFFFF" p-id="6902"></path><path d="M521.3 755.1c-114.1 0-206.8-92.8-206.8-206.8s92.8-206.8 206.8-206.8 206.8 92.8 206.8 206.8-92.7 206.8-206.8 206.8z m0-361.1C436.2 394 367 463.2 367 548.2s69.2 154.3 154.3 154.3 154.3-69.2 154.3-154.3S606.4 394 521.3 394z" p-id="6903"></path><path d="M518.2 646.4c-54.4 0-98.7-44.3-98.7-98.7 0-54.4 44.3-98.7 98.7-98.7 39.8 0 75.5 23.7 90.9 60.3 5.7 13.4-0.6 28.8-14 34.5-13.4 5.6-28.8-0.6-34.5-14-7.2-17.1-23.9-28.2-42.5-28.2-25.4 0-46.1 20.7-46.1 46.1 0 25.4 20.7 46.1 46.1 46.1 14.5 0 26.3 11.8 26.3 26.3s-11.7 26.3-26.2 26.3z" p-id="6904"></path><path d="M575.9 584.4m-26.3 0a26.3 26.3 0 1 0 52.6 0 26.3 26.3 0 1 0-52.6 0Z" fill="#49E8CE" p-id="6905"></path></svg>