<?xml version="1.0" standalone="no"?><!DOCTYPE svg PUBLIC "-//W3C//DTD SVG 1.1//EN" "http://www.w3.org/Graphics/SVG/1.1/DTD/svg11.dtd"><svg t="1629547477161" class="icon" viewBox="0 0 1133 1024" version="1.1" xmlns="http://www.w3.org/2000/svg" p-id="11342" xmlns:xlink="http://www.w3.org/1999/xlink" width="17.703125" height="16"><defs><style type="text/css"></style></defs><path d="M566.920488 102.880107a53.497656 53.497656 0 0 1 46.810448 26.920295L1023.87963 840.187542A54.012056 54.012056 0 0 1 977.412115 921.119893H156.771794A54.012056 54.012056 0 0 1 110.132812 840.187542L520.281506 129.800402A53.154722 53.154722 0 0 1 566.920488 102.880107m0-102.880107a157.235097 157.235097 0 0 0-135.801742 78.360348L20.970052 788.747488a156.892163 156.892163 0 0 0 135.801742 235.252512H977.412115A156.892163 156.892163 0 0 0 1112.870923 788.747488L703.065163 78.360348A157.235097 157.235097 0 0 0 566.920488 0z" p-id="11343" fill="#ffa500"></path><path d="M566.920488 688.09645a51.440054 51.440054 0 0 1-51.440054-51.440053V341.047555a51.440054 51.440054 0 0 1 102.880107 0v295.608842a51.440054 51.440054 0 0 1-51.440053 51.440053z" p-id="11344" fill="#ffa500"></path><path d="M564.005551 789.776289m-51.440053 0a51.440054 51.440054 0 1 0 102.880107 0 51.440054 51.440054 0 1 0-102.880107 0Z" p-id="11345" fill="#ffa500"></path></svg>